<svg width="732" height="770" viewBox="0 0 732 770" fill="none" xmlns="http://www.w3.org/2000/svg">
<path d="M307.204 646.983C324.909 684.577 350.891 714.081 383.997 734.187C417.103 754.293 457.333 765 503.535 765C549.737 765 589.967 754.293 623.073 734.187C656.179 714.081 682.161 684.577 699.866 646.983C717.571 609.389 727 563.704 727 511.238C727 458.772 717.571 413.088 699.866 375.493C682.161 337.899 656.179 308.395 623.073 288.289C589.967 268.183 549.737 257.476 503.535 257.476C457.333 257.476 417.103 268.183 383.997 288.289M307.204 646.983C289.499 609.389 280.07 563.704 280.07 511.238C280.07 458.772 289.499 413.088 307.204 375.493C324.909 337.899 350.891 308.395 383.997 288.289M307.204 646.983C302.706 637.431 298.741 627.357 295.331 616.782C290.491 620.31 285.359 623.582 280.07 626.584C228.916 655.629 168.705 655.629 117.55 626.584C66.2787 597.473 29.7148 543.111 18.4728 479.28L15.9752 465.1C2.54375 388.837 1.4305 310.438 12.6897 233.723L21.3543 174.687C30.7383 110.75 66.496 55.7716 117.55 26.7837C168.705 -2.26122 228.916 -2.26122 280.07 26.7837C331.124 55.7716 366.882 110.75 376.266 174.687L384.931 233.723C387.41 250.617 389.289 267.592 390.569 284.608L383.997 288.289M604.089 397.051L587.26 416.162M419.81 606.314L402.981 625.425M419.81 416.162L402.981 397.051M604.089 625.425L587.26 606.314M628.91 511.238H621.939M385.131 511.238H378.16M503.535 376.781V368.864M503.535 653.612C503.535 650.52 503.535 645.696 503.535 645.696M503.535 442.03C537.194 442.03 564.48 473.016 564.48 511.238C564.48 549.46 537.194 580.446 503.535 580.446C469.876 580.446 442.59 549.46 442.59 511.238C442.59 473.016 469.876 442.03 503.535 442.03Z" stroke="#F08626" stroke-width="10" stroke-linecap="round"/>
</svg>
