<svg width="971" height="556" viewBox="0 0 971 556" fill="none" xmlns="http://www.w3.org/2000/svg">
<path d="M212.5 119.971V437.029M112.756 138.543C89.9384 163.307 89.9384 203.457 112.756 228.221C126.374 243.001 145.042 248.96 162.732 246.098M283.03 450.162C305.847 425.399 305.847 385.248 283.03 360.485M340.101 232.188C322.988 213.616 295.242 213.616 278.128 232.188M85.3141 386.3C102.427 404.873 130.174 404.873 147.287 386.3M212.5 548C358.571 548 417 421.176 417 298.083C417 168.773 348.833 72.4118 212.5 9C76.1667 72.4118 8 168.773 8 298.083C8 421.176 66.4286 548 212.5 548ZM212.5 93.7046L243.524 127.364C251.697 122.645 261.025 119.971 270.929 119.971C303.198 119.971 329.357 148.361 329.357 183.382C329.357 196.45 325.715 208.594 319.473 218.684C342.236 227.291 358.571 250.825 358.571 278.5C358.571 290.054 355.724 300.887 350.749 310.216C355.724 319.525 358.571 330.357 358.571 341.912C358.571 376.933 332.412 405.324 300.143 405.324C300.143 440.345 273.983 468.735 241.714 468.735C231.071 468.735 221.092 465.647 212.498 460.251C203.93 465.64 193.941 468.735 183.286 468.735C151.017 468.735 124.857 440.345 124.857 405.324L120.497 405.15C90.2639 402.729 66.4286 375.341 66.4286 341.912C66.4286 330.357 69.276 319.525 74.2509 310.195C69.276 300.887 66.4286 290.054 66.4286 278.5C66.4286 250.825 82.7644 227.291 105.542 218.635C99.2848 208.594 95.6429 196.45 95.6429 183.382C95.6429 148.361 121.802 119.971 154.071 119.971C163.975 119.971 173.303 122.645 181.476 127.364L212.5 93.7046Z" stroke="#F08626" stroke-width="15" stroke-linecap="square"/>
<path d="M525.311 306.213C564.574 342.244 590.23 395.619 596.577 454.477M503.111 332.204L511.336 339.366C542.001 366.073 561.763 407.185 565.686 452.437L567.941 478.447C569.747 499.283 585.273 514.414 602.619 512.245C604.479 512.012 606.318 511.581 608.114 510.958C629.348 503.589 643.551 479.61 642.384 453.098L638.512 365.194C636.591 321.565 617.354 281.695 586.794 258.001L579.605 252.428C555.001 233.352 522.886 235.959 500.642 258.838C484.313 275.634 482.411 305.149 496.395 324.763C498.383 327.551 500.637 330.049 503.111 332.204Z" stroke="#F08626" stroke-width="15" stroke-linecap="round"/>
<path d="M766.261 90.9263C736.1 137.936 722.819 197.468 729.371 256.294M793.305 109.13L786.904 118.606C763.038 153.936 752.809 199.79 758.77 244.72L762.197 270.545C764.942 291.232 753.205 310.674 735.982 313.971C734.136 314.325 732.267 314.481 730.398 314.437C708.299 313.92 689.413 295.173 684.828 269.202L669.626 183.09C662.081 140.35 672.071 95.8579 696.485 63.471L702.227 55.8529C721.883 29.7782 753.465 22.3127 779.881 37.4972C799.273 48.6443 807.47 76.5628 798.189 99.855C796.87 103.166 795.23 106.28 793.305 109.13Z" stroke="#F08626" stroke-width="15" stroke-linecap="round"/>
<path d="M775.678 434.672C821.367 412.075 857.65 368.494 876.464 313.614M759.836 402.665L769.323 398.303C804.698 382.04 832.645 348.472 846.185 305.982L853.968 281.559C860.202 261.995 878.46 252.206 894.748 259.694C896.494 260.497 898.177 261.484 899.778 262.644C918.701 276.364 927.253 303.941 920.412 329.187L897.732 412.892C886.475 454.437 859.302 486.969 824.677 500.354L816.533 503.503C788.656 514.28 758.197 501.778 741.642 472.763C729.488 451.464 734.011 422.363 751.744 407.765C754.265 405.689 756.981 403.978 759.836 402.665Z" stroke="#F08626" stroke-width="15" stroke-linecap="round"/>
</svg>
