<svg width="829" height="745" viewBox="0 0 829 745" fill="none" xmlns="http://www.w3.org/2000/svg">
<path d="M94.1383 659.761L103.708 652.935C116.168 643.519 127.405 632.858 137.198 621.15C208.55 535.846 189.272 414.826 94.1383 350.845L84.5682 357.671C72.1089 367.087 60.8716 377.748 51.079 389.456C-20.2737 474.76 -0.995384 595.78 94.1383 659.761ZM94.1383 659.761L101.751 668.344C112.254 679.518 124.146 689.596 137.205 698.378C232.335 762.352 367.291 745.063 438.636 659.761L431.023 651.178C420.521 640.004 408.629 629.926 395.57 621.144C300.439 557.17 165.484 574.459 94.1383 659.761ZM266.387 505.303L275.957 498.478C288.417 489.062 299.654 478.4 309.447 466.693C380.799 381.388 361.521 260.368 266.387 196.388L256.817 203.213C244.358 212.629 233.121 223.291 223.328 234.998C151.975 320.303 171.254 441.322 266.387 505.303ZM266.387 505.303L274 513.886C284.503 525.06 296.395 535.138 309.454 543.92C404.585 607.894 539.54 590.605 610.885 505.303L603.272 496.72C592.77 485.546 580.878 475.468 567.819 466.686C472.688 402.712 337.733 420.001 266.387 505.303ZM438.636 350.845L448.207 344.02C460.666 334.604 471.903 323.942 481.696 312.235C553.048 226.93 533.77 105.91 438.636 41.9298L429.066 48.7552C416.607 58.1713 405.37 68.8329 395.577 80.5403C324.224 165.845 343.503 286.865 438.636 350.845ZM438.636 350.845L446.249 359.428C456.752 370.602 468.644 380.68 481.703 389.462C576.834 453.437 711.789 436.147 783.135 350.845L775.522 342.262C765.019 331.088 753.127 321.01 740.068 312.228C644.937 248.254 509.982 265.543 438.636 350.845ZM818.808 9.94054C835.626 115.505 753.829 213.298 636.111 228.377C619.953 230.447 603.598 230.861 587.362 229.619L575.21 228.369C558.394 122.813 640.191 25.0192 757.909 9.94028C778.107 7.35315 798.611 7.35324 818.808 9.94054Z" stroke="#F08626" stroke-width="15" stroke-linecap="round"/>
</svg>
