<svg width="720" height="644" viewBox="0 0 720 644" fill="none" xmlns="http://www.w3.org/2000/svg">
<path fill-rule="evenodd" clip-rule="evenodd" d="M484.25 5C406.572 5 337.859 100.743 296.042 205.832C265.294 153.943 225.699 115.448 182.5 115.448C84.4695 115.448 5 313.685 5 416.67C5 519.655 84.4695 603.14 182.5 603.14C230.526 603.14 274.097 583.103 306.051 550.552C348.314 604.552 412.453 639 484.25 639C611.69 639 715 530.469 715 396.588C715 362.51 708.306 320.408 696.224 276.575L690.72 257.702C652.85 134.578 574.616 5 484.25 5ZM484.25 639C356.81 639 253.5 530.469 253.5 396.588C253.5 362.51 260.194 320.408 272.276 276.575L277.779 257.702C315.65 134.578 393.884 5 484.25 5C574.616 5 652.85 134.578 690.72 257.702L696.224 276.575C708.306 320.408 715 362.51 715 396.588C715 530.469 611.69 639 484.25 639Z" stroke="#F08626" stroke-width="9" stroke-linecap="round"/>
</svg>
