<svg width="479" height="667" viewBox="0 0 479 667" fill="none" xmlns="http://www.w3.org/2000/svg">
<path d="M110.333 7H368.667M22.8903 279.502L70.8748 225.993C112.955 179.069 140.002 126.281 150.144 71.2885L162 7H317L327.719 67.2108C337.676 123.139 364.873 176.871 407.417 224.667L456.293 279.577C466.558 291.108 472 304.433 472 318.031V587.444C472 627.516 425.736 660 368.667 660H110.333C53.2639 660 7 627.516 7 587.444V318.162C7 304.481 12.5086 291.079 22.8903 279.502ZM7 406.056L39.4618 413.653C116.206 431.615 200.617 421.997 265.333 387.917L276.243 382.172C329.739 354 400.309 348.155 461.335 366.322L472 369.778V587.444C472 627.516 425.736 660 368.667 660H110.333C53.2639 660 7 627.516 7 587.444V406.056Z" stroke="#F08626" stroke-width="14" stroke-linecap="round"/>
</svg>
