<svg width="852" height="738" viewBox="0 0 852 738" fill="none" xmlns="http://www.w3.org/2000/svg">
<path d="M337.889 477.611L379.89 484.364C383.654 484.969 387.464 485.273 391.279 485.273C429.54 485.273 460.556 455.353 460.556 418.444L419.667 438.167V379L415.585 379.097C372.317 381.148 337.889 415.64 337.889 457.889V477.611ZM337.889 477.611V490.224C337.889 507.622 343.851 524.533 354.848 538.323L378.778 568.333M368.556 576.222H342.715C327.228 576.222 313.069 584.663 306.143 598.027L297 615.667M354.244 635.389H342.715C327.228 635.389 313.069 643.83 306.143 657.193L297 674.833M409.444 694.556H383.604C368.116 694.556 353.958 702.997 347.032 716.36L337.889 734M593.444 576.222H619.285C634.772 576.222 648.931 584.663 655.857 598.027L665 615.667M607.756 635.389H619.285C634.772 635.389 648.931 643.83 655.857 657.193L665 674.833M552.556 694.556H578.396C593.883 694.556 608.042 702.997 614.968 716.36L624.111 734M624.111 477.611V490.224C624.111 507.622 618.149 524.533 607.152 538.323L583.222 568.333M624.111 477.611L582.11 484.364C578.346 484.969 574.536 485.273 570.721 485.273C532.46 485.273 501.444 455.353 501.444 418.444L542.333 438.167V379L546.415 379.097C589.683 381.148 624.111 415.64 624.111 457.889V477.611ZM405.16 691.058L422.222 700.719C458.513 721.267 503.487 721.267 539.778 700.719L556.84 691.058C583.427 676.004 602.263 650.897 608.778 621.83C614.063 598.248 598.531 574.998 574.086 569.899L572.623 569.618L550 566.361C504.25 559.823 457.75 559.823 412 566.361L390.848 569.384C366.108 572.92 349.023 595.133 352.688 619C352.834 619.948 353.012 620.892 353.222 621.83C359.737 650.897 378.573 676.004 405.16 691.058Z" stroke="#F08626" stroke-width="7" stroke-linecap="round"/>
<path fill-rule="evenodd" clip-rule="evenodd" d="M433.668 558.113V556.585V558.113Z" stroke="#F08626" stroke-width="7" stroke-linecap="round" stroke-linejoin="round"/>
<path fill-rule="evenodd" clip-rule="evenodd" d="M482.332 558.113V556.585V558.113Z" stroke="#F08626" stroke-width="7" stroke-linecap="round" stroke-linejoin="round"/>
<path d="M339.619 193.616L347.993 197.221C374.796 208.729 388.623 243.712 378.877 275.359C376.581 282.813 373.075 289.667 368.556 295.536L365.165 299.941C333.092 341.596 295.818 377.222 254.633 405.588L193.537 447.667C192.892 448.111 192.094 448.111 191.449 447.667L130.353 405.588C89.1683 377.222 51.8946 341.596 19.8216 299.941L16.4301 295.536C-2.75487 270.619 -1.19962 232.058 19.9039 209.406C24.8748 204.071 30.6798 199.932 36.9934 197.221L45.3788 193.586M124.017 340.583L57.8022 236.348C37.2108 203.932 42.775 157.945 70.2302 133.633C75.5733 128.902 81.5275 125.218 87.8637 122.725L99.2833 118.23C107.175 115.125 115.15 112.424 123.187 110.128L126.961 109.079C120.2 123.816 118.229 141.495 122.364 158.584M122.364 158.584L160.455 316.005M122.364 158.584C114.986 128.096 127.046 95.7268 151.067 81.5465C177.145 66.1512 207.841 66.1512 233.92 81.5465C257.94 95.7268 270 128.096 262.622 158.584M224.522 316.002L262.622 158.584M262.622 158.584C266.755 141.505 264.788 123.835 258.036 109.104C267.346 111.591 276.58 114.64 285.703 118.23L297.123 122.725C329.68 135.538 347.276 177.088 336.423 215.529C334.311 223.01 331.191 230.04 327.184 236.348L260.958 340.57" stroke="#F08626" stroke-width="6" stroke-linecap="round"/>
<path d="M846.823 108.559C847.475 119.339 846.321 130.142 843.397 140.645C838.115 165.467 826.435 188.983 809.198 209.5C791.96 230.017 769.595 247.025 743.712 259.299C717.828 271.574 689.07 278.81 659.509 280.486C629.947 282.162 600.316 278.237 572.75 268.993C564.274 266.48 556.214 263.049 548.768 258.783L536.778 252.949C536.778 251.491 535.065 250.032 535.065 248.573C528.184 232.7 524.703 215.905 524.787 198.985V190.234C523.383 185.966 522.805 181.533 523.074 177.107C522.936 141.028 536.119 105.824 560.759 76.4718C539.598 67.0588 516.114 62.06 492.241 61.8869H480.25C493.037 50.3866 508.44 41.2232 525.521 34.9546C542.602 28.686 561.002 25.4434 579.602 25.4247C592.908 25.3435 606.164 26.8155 619 29.8C651.024 13.3252 687.789 4.74216 725.203 5.0059C759.233 4.82573 792.783 11.8418 822.842 25.4247C838.598 51.0822 846.826 79.6057 846.823 108.559Z" stroke="#F08626" stroke-width="8.5" stroke-linecap="round" stroke-linejoin="round"/>
<path d="M535.064 252.95L528.213 295.246L523.074 339L478.537 301.08L434 263.159L485.389 258.784L535.064 252.95Z" stroke="#F08626" stroke-width="8.5" stroke-linecap="round" stroke-linejoin="round"/>
<path d="M814.277 194.61C765.055 194.226 718.003 177.307 683.357 147.535C648.711 117.763 629.275 77.5466 629.277 35.6353" stroke="#F08626" stroke-width="8.5" stroke-linecap="round" stroke-linejoin="round"/>
<path d="M750.072 67.7212C750.072 73.6193 744.205 79.5147 735.479 79.5147C726.754 79.5147 720.887 73.6192 720.887 67.7212C720.887 61.8232 726.754 55.9277 735.479 55.9277C744.205 55.9277 750.072 61.8231 750.072 67.7212Z" fill="black" stroke="#F08626" stroke-width="8.5"/>
</svg>
