<svg width="540" height="687" viewBox="0 0 540 687" fill="none" xmlns="http://www.w3.org/2000/svg">
<path fill-rule="evenodd" clip-rule="evenodd" d="M0 5H253.257C298.348 5 341.593 17.8171 373.478 40.6316C405.362 63.4461 423.275 94.3892 423.275 126.654V129.711C423.275 164.404 439.001 198.161 468.092 225.916L497.97 254.421C543.137 297.512 547.345 355.881 508.615 402.069L474.515 442.734C440.986 482.72 423.275 528.474 423.275 575.105C423.275 615.996 381.254 650.664 324.682 656.447L74.6955 682V554.233C74.6955 524.657 89.747 496.191 116.815 474.08L125.245 467.672C155.069 446.332 164.532 414.426 149.391 386.258L147.731 383.17C134.171 357.943 133.429 330.198 145.414 304.742L149.391 297.179C164.457 271.307 156.212 241.486 128.514 221.667L124.493 218.789C92.608 195.975 74.6955 165.032 74.6955 132.767V58.4474C74.6955 28.9292 41.2532 5 0 5ZM248.985 610.737C290.238 610.737 323.681 586.808 323.681 557.289C323.681 527.771 290.238 503.842 248.985 503.842C207.732 503.842 174.29 527.771 174.29 557.289C174.29 586.808 207.732 610.737 248.985 610.737ZM323.681 414.763C378.685 414.763 423.275 382.858 423.275 343.5C423.275 304.142 378.685 272.237 323.681 272.237C268.676 272.237 224.087 304.142 224.087 343.5C224.087 382.858 268.676 414.763 323.681 414.763ZM248.985 200.974C290.238 200.974 323.681 177.044 323.681 147.526C323.681 118.008 290.238 94.079 248.985 94.079C207.732 94.079 174.29 118.008 174.29 147.526C174.29 177.044 207.732 200.974 248.985 200.974Z" stroke="#F08626" stroke-width="9" stroke-linecap="round"/>
</svg>
