<svg width="882" height="729" viewBox="0 0 882 729" fill="none" xmlns="http://www.w3.org/2000/svg">
<path d="M874.999 239.007C874.999 261.093 865.713 282.274 849.183 297.891C832.653 313.508 810.233 322.281 786.856 322.281C765.382 322.406 744.626 314.986 728.619 301.463C718.667 319.068 703.704 333.695 685.419 343.692C667.135 353.689 646.257 358.659 625.142 358.04C604.026 357.422 583.515 351.239 565.921 340.191C548.328 329.143 534.353 313.669 525.575 295.515C516.917 301.517 506.405 304.653 495.669 304.437C488.228 304.437 480.859 303.052 473.985 300.362C467.11 297.672 460.864 293.728 455.602 288.757C450.34 283.786 446.166 277.885 443.319 271.39C440.471 264.895 439.006 257.934 439.006 250.904C438.846 240.375 442.07 230.048 448.252 221.286C454.435 212.525 463.284 205.741 473.633 201.831C470.955 193.658 469.888 185.089 470.485 176.552C470.624 157.783 476.823 139.502 488.253 124.151C499.683 108.8 515.8 97.11 534.451 90.644C553.101 84.1779 573.395 83.2436 592.622 87.9658C611.85 92.688 629.094 102.842 642.049 117.07C660.346 104.503 682.387 97.735 705.009 97.7389C724.817 97.7285 744.16 103.413 760.466 114.038C776.773 124.663 789.271 139.724 796.3 157.22C817.869 159.08 837.917 168.512 852.487 183.653C867.056 198.794 875.089 218.545 874.999 239.007Z" stroke="#F08626" stroke-width="12.5" stroke-linecap="round" stroke-linejoin="round"/>
<path d="M786.86 322.281C786.86 322.281 709.735 335.665 709.735 500.725H629.461C629.461 500.725 634.184 386.224 555.484 331.203" stroke="#F08626" stroke-width="12.5" stroke-linecap="round" stroke-linejoin="round"/>
<path d="M518.151 528.945C518.349 547.224 511.944 565.097 499.837 580.053C488.698 575.034 478.543 568.517 469.748 560.745C451.955 546.648 441.166 527.101 439.659 506.23C415.61 503.74 393.129 494.579 375.557 480.108C366.688 472.231 359.59 462.987 354.625 452.85C372.268 443.239 392.666 438.124 413.494 438.086C428.393 437.855 443.158 440.574 456.666 446.036C479.764 455.311 498.311 471.413 508.994 491.465C514.802 503.329 517.911 516.056 518.151 528.945Z" stroke="#F08626" stroke-width="15.5" stroke-linecap="round" stroke-linejoin="round"/>
<path d="M481.52 459.665C481.52 459.665 512.917 463.072 525.999 429" stroke="#F08626" stroke-width="15.5" stroke-linecap="round" stroke-linejoin="round"/>
<path d="M338.926 513.044C304.825 548.96 260.028 576.066 209.413 591.41C136.153 612.989 150.543 719.749 246.043 720.884C341.542 722.02 376.864 692.491 435.733 606.175" stroke="#F08626" stroke-width="15.5" stroke-linecap="round" stroke-linejoin="round"/>
<path d="M196.822 301.671C222.416 301.671 243.164 281.933 243.164 257.586C243.164 233.238 222.416 213.5 196.822 213.5C171.229 213.5 150.48 233.238 150.48 257.586C150.48 281.933 171.229 301.671 196.822 301.671Z" stroke="#F08626" stroke-width="9" stroke-miterlimit="10"/>
<path d="M310.794 91.0609C310.264 132.676 326.339 173.443 356.914 208.02C377.974 232.395 389.13 260.914 388.999 290.044C384.141 325.957 361.87 359.227 326.495 383.417C291.12 407.608 245.157 421 197.499 421C149.842 421 103.878 407.608 68.5037 383.417C33.1289 359.227 10.8577 325.957 6 290.044C6.58058 260.772 18.4277 232.265 40.0885 208.02C70.6641 173.443 86.7398 132.676 86.2092 91.0609C86.2092 68.5013 98.0399 46.8659 119.099 30.9138C140.158 14.9617 168.72 6 198.502 6C228.284 6 256.846 14.9617 277.905 30.9138C298.964 46.8659 310.794 68.5013 310.794 91.0609Z" stroke="#F08626" stroke-width="11.5" stroke-miterlimit="10"/>
</svg>
